<svg width="51" height="32" fill="none" xmlns="http://www.w3.org/2000/svg"><path fill-rule="evenodd" clip-rule="evenodd" d="M27.978 20.388H0L20.21 1.702C21.934.11 24.41-.413 26.674.336c2.263.75 3.87 2.627 4.195 4.898L34.097 27.8c.096.674.557 1.205 1.23 1.42a1.848 1.848 0 001.876-.43l8.666-8.402h-9.926l-.331-2.053H51L38.73 30.23a4.033 4.033 0 01-2.815 1.134c-.422 0-.848-.065-1.265-.198-1.445-.46-2.471-1.644-2.678-3.089l-3.23-22.565c-.217-1.524-1.253-2.733-2.771-3.236-1.518-.504-3.114-.166-4.27.902L5.308 18.335h22.369l.301 2.053zm17.24-10.702h-1.946V.025h1.946L48.91 6.36h.028V.025H50.9v9.661h-1.917l-3.735-6.335h-.029v6.335z" fill="#858585"/></svg>